# This file uses centimeters as units for non-parametric coordinates.

mtllib uparm1.mtl
g default
v -4.303167 18.731443 0.872410
v -4.167851 20.000669 0.872410
v -4.303167 18.731443 -0.547979
v -4.167851 20.000669 -0.547980
v -4.303167 18.731443 -0.181200
v -4.366970 18.132982 -0.181852
v -4.303436 18.728918 0.505109
v -4.367919 18.124075 0.504895
v -4.356609 18.230169 0.340439
v -4.356623 18.230036 -0.022072
v -4.355192 18.243458 0.158912
v -3.563729 18.648617 0.748669
v -3.427207 19.919851 0.747908
v -3.562694 18.649012 -0.450804
v -3.427207 19.919851 -0.450769
v -3.677067 18.662836 0.865963
v -3.541395 19.932026 0.865595
v -3.675006 18.662615 -0.554427
v -3.541481 19.932039 -0.554409
v -3.626879 18.046972 0.677281
v -3.641072 17.913847 -0.354483
v -3.741424 18.059185 0.795337
v -3.753413 17.927183 -0.467595
v -3.849846 18.681255 0.865963
v -3.915471 18.077740 0.795337
v -3.924155 17.945385 -0.467595
v -3.847420 18.679886 -0.554320
v -3.627275 18.043257 0.498447
v -3.626325 18.052164 -0.188300
v -3.615964 18.149353 0.333991
v -3.615978 18.149218 -0.028519
v -3.614547 18.162640 0.152464
v -3.915867 18.074024 0.498447
v -3.929663 17.944614 -0.354483
v -3.914917 18.082932 -0.188300
v -3.904556 18.180120 0.333991
v -3.904570 18.179985 -0.028519
v -3.903139 18.193407 0.152464
v -3.847420 18.679886 -0.187648
v -3.850116 18.678730 0.498662
v -5.043447 18.806374 0.748669
v -4.908888 20.077818 0.747908
v -5.044376 18.806978 -0.450804
v -4.908888 20.077818 -0.450769
v -4.929659 18.796377 0.865963
v -4.794700 20.065643 0.865595
v -4.931720 18.796597 -0.554427
v -4.794612 20.065639 -0.554409
v -5.108561 18.204939 0.677281
v -5.122754 18.071814 -0.354483
v -4.994016 18.192726 0.795337
v -5.010126 18.061165 -0.467595
v -4.756880 18.777956 0.865963
v -4.819969 18.174171 0.795337
v -4.839383 18.042961 -0.467595
v -4.759540 18.777130 -0.554320
v -5.108957 18.201223 0.498447
v -5.108007 18.210131 -0.188300
v -5.097646 18.307318 0.333991
v -5.097660 18.307182 -0.028519
v -5.096229 18.320604 0.152464
v -4.820365 18.170456 0.498447
v -4.834162 18.041046 -0.354483
v -4.819416 18.179363 -0.188300
v -4.809054 18.276550 0.333991
v -4.809069 18.276415 -0.028519
v -4.807638 18.289837 0.152464
v -4.759540 18.777130 -0.187648
v -4.757149 18.775431 0.498662
vt 0.849972 0.382836
vt 0.843457 0.383078
vt 0.840988 0.355085
vt 0.847525 0.354533
vt 0.792725 0.382681
vt 0.795191 0.359821
vt 0.802043 0.359657
vt 0.788857 0.359698
vt 0.786604 0.382685
vt 0.780064 0.382431
vt 0.782171 0.359080
vt 0.837728 0.383028
vt 0.834870 0.355087
vt 0.808359 0.363723
vt 0.815257 0.364281
vt 0.822144 0.363821
vt 0.828356 0.360196
vt 0.885338 0.473054
vt 0.885338 0.471247
vt 0.888404 0.471246
vt 0.886558 0.474244
vt 0.897213 0.474244
vt 0.897214 0.471247
vt 0.898381 0.471302
vt 0.898381 0.473075
vt 0.895497 0.474244
vt 0.895498 0.471246
vt 0.888405 0.474244
vt 0.890104 0.471247
vt 0.890103 0.474244
vt 0.891978 0.474243
vt 0.891978 0.471247
vt 0.893846 0.471247
vt 0.893847 0.474244
vt 0.905483 0.471191
vt 0.901697 0.471171
vt 0.901648 0.466499
vt 0.905439 0.466473
vt 0.895431 0.466539
vt 0.878266 0.466654
vt 0.882059 0.466628
vt 0.882121 0.471319
vt 0.878327 0.471314
vt 0.888340 0.466587
vt 0.890038 0.466575
vt 0.891911 0.466563
vt 0.893780 0.466551
vt 0.903371 0.478820
vt 0.904539 0.478813
vt 0.901664 0.477372
vt 0.879087 0.477579
vt 0.882154 0.477602
vt 0.843376 0.431092
vt 0.792333 0.430779
vt 0.837527 0.431072
vt 0.786121 0.430719
vt 0.867304 0.382992
vt 0.867181 0.431222
vt 0.762377 0.430393
vt 0.762823 0.382320
vt 0.785678 0.484353
vt 0.761879 0.483914
vt 0.790421 0.435199
vt 0.790051 0.480475
vt 0.675684 0.381213
vt 0.678658 0.352963
vt 0.685182 0.353635
vt 0.682193 0.381576
vt 0.732922 0.382124
vt 0.724034 0.358930
vt 0.730882 0.359222
vt 0.737219 0.359218
vt 0.743914 0.358725
vt 0.745583 0.382110
vt 0.739040 0.382243
vt 0.687921 0.381632
vt 0.691297 0.353751
vt 0.717644 0.362877
vt 0.710736 0.363306
vt 0.703857 0.362718
vt 0.697715 0.358979
vt 0.885253 0.460161
vt 0.886455 0.458955
vt 0.888342 0.461927
vt 0.885278 0.461968
vt 0.897111 0.458812
vt 0.898293 0.459965
vt 0.898318 0.461738
vt 0.897150 0.461809
vt 0.895395 0.458836
vt 0.895434 0.461833
vt 0.888302 0.458930
vt 0.890001 0.458908
vt 0.890041 0.461905
vt 0.891876 0.458883
vt 0.893744 0.458856
vt 0.893784 0.461854
vt 0.891915 0.461879
vt 0.905420 0.461754
vt 0.901635 0.461826
vt 0.878265 0.461996
vt 0.882059 0.461938
vt 0.903206 0.454154
vt 0.904374 0.454145
vt 0.901519 0.455624
vt 0.878940 0.455721
vt 0.882006 0.455655
vt 0.681382 0.429583
vt 0.732418 0.430221
vt 0.687230 0.429674
vt 0.738633 0.430278
vt 0.657578 0.429274
vt 0.658350 0.381045
vt 0.738075 0.483911
vt 0.733776 0.479951
vt 0.734248 0.434676
vn -0.010555 -0.013691 -0.999851
vn -0.006882 -0.062156 -0.998043
vn -0.012299 -0.115968 -0.993177
vn -0.012299 -0.115968 -0.993177
vn 0.987353 -0.109980 0.114189
vn 0.874853 -0.146607 0.461670
vn 0.994515 -0.104590 0.000469
vn -0.012250 -0.114908 0.993301
vn -0.005998 -0.056259 0.998398
vn 0.008095 -0.014309 0.999865
vn -0.012250 -0.114908 0.993301
vn 0.986385 -0.111117 -0.121234
vn 0.675074 -0.161621 -0.719829
vn 0.675074 -0.161621 -0.719829
vn 0.671734 -0.103246 -0.733562
vn 0.994532 -0.104437 0.000460
vn 0.994471 -0.105013 0.000730
vn 0.709082 -0.100696 0.697899
vn 0.700774 -0.156150 0.696084
vn 0.994365 -0.106012 0.000002
vn 0.994365 -0.106012 0.000001
vn 0.994365 -0.106011 0.000000
vn -0.101899 -0.994743 0.010158
vn -0.101899 -0.994743 0.010158
vn -0.102753 -0.994630 0.012394
vn -0.102997 -0.994596 0.013034
vn -0.106001 -0.994294 -0.011954
vn -0.106001 -0.994294 -0.011954
vn -0.106001 -0.994294 -0.011954
vn -0.106001 -0.994294 -0.011954
vn -0.085780 -0.804599 0.587590
vn -0.086175 -0.823842 0.560230
vn -0.081292 -0.762500 0.641861
vn -0.081292 -0.762500 0.641861
vn -0.105989 -0.994148 0.020878
vn -0.088933 -0.834176 -0.544280
vn -0.095697 -0.833439 -0.544263
vn -0.105327 -0.939232 -0.326726
vn -0.100153 -0.939411 -0.327836
vn -0.106012 -0.994365 0.000379
vn -0.108465 -0.994100 0.000783
vn -0.100401 -0.945007 0.311257
vn -0.100790 -0.945385 0.309982
vn -0.112410 -0.993662 0.000000
vn -0.112410 -0.993662 0.000000
vn -0.112410 -0.993662 0.000000
vn -0.112410 -0.993662 0.000000
vn -0.013911 0.002619 -0.999900
vn -0.013911 0.002619 -0.999900
vn -0.013911 0.002619 -0.999900
vn -0.013911 0.002619 -0.999900
vn -0.109940 -0.993914 0.006917
vn -0.109940 -0.993914 0.006917
vn -0.109940 -0.993914 0.006917
vn -0.109940 -0.993914 0.006917
vn 0.014035 -0.001865 0.999900
vn 0.014035 -0.001865 0.999900
vn 0.014035 -0.001865 0.999900
vn 0.014035 -0.001865 0.999900
vn -0.099984 -0.832951 -0.544239
vn -0.108537 -0.937848 -0.329636
vn -0.110049 -0.993926 -0.000293
vn -0.100362 -0.946116 0.307885
vn -0.086563 -0.848980 0.521287
vn -0.994004 0.108798 -0.010882
vn -0.993799 0.111159 -0.002581
vn -0.994020 0.098212 -0.047734
vn -0.993765 0.111484 -0.001437
vn -0.993765 0.111484 -0.001437
vn -0.994140 0.108103 -0.000027
vn -0.994140 0.108097 -0.000018
vn -0.994140 0.108100 -0.000022
vn -0.994141 0.108095 -0.000015
vn -0.011417 0.001963 -0.999933
vn 0.990565 -0.105967 0.086902
vn 0.990585 -0.105906 -0.086752
vn 0.011886 -0.001945 0.999927
vn 0.668848 -0.070815 -0.740019
vn 0.712055 -0.075983 0.698000
vn 0.000080 0.000748 -1.000000
vn 0.000080 0.000748 -1.000000
vn -0.000073 -0.000685 1.000000
vn -0.000073 -0.000685 1.000000
vn 0.108919 0.994051 0.000002
vn 0.108919 0.994051 0.000002
vn 0.108919 0.994051 0.000002
vn 0.108919 0.994051 0.000002
vn 0.106036 0.994362 0.000004
vn 0.106036 0.994362 0.000004
vn 0.106036 0.994362 0.000004
vn 0.106036 0.994362 0.000004
vn 0.007432 -0.015609 -0.999851
vn -0.012427 -0.115955 -0.993177
vn -0.012427 -0.115955 -0.993177
vn -0.006377 -0.062211 -0.998043
vn -0.988347 0.100654 0.114189
vn -0.994212 0.107433 0.000470
vn -0.886098 0.041132 0.461669
vn -0.012250 -0.114908 0.993301
vn -0.012250 -0.114908 0.993301
vn -0.010929 -0.012281 0.999865
vn -0.005998 -0.056259 0.998398
vn -0.987641 0.099339 -0.121234
vn -0.678402 0.040695 -0.733563
vn -0.693976 -0.015664 -0.719828
vn -0.693976 -0.015664 -0.719828
vn -0.994195 0.107588 0.000458
vn -0.994258 0.107012 0.000731
vn -0.717946 -0.004897 0.696082
vn -0.714374 0.051062 0.697898
vn -0.994365 0.106011 0.000000
vn -0.994365 0.106010 0.000001
vn -0.994365 0.106011 0.000002
vn -0.110110 -0.993868 0.010145
vn -0.109006 -0.993956 0.013032
vn -0.109252 -0.993937 0.012389
vn -0.110110 -0.993868 0.010145
vn -0.106005 -0.994294 -0.011954
vn -0.106005 -0.994294 -0.011954
vn -0.106005 -0.994294 -0.011954
vn -0.106005 -0.994294 -0.011954
vn -0.085781 -0.804604 0.587584
vn -0.081292 -0.762502 0.641859
vn -0.081292 -0.762501 0.641859
vn -0.089452 -0.823497 0.560225
vn -0.105989 -0.994148 0.020905
vn -0.088934 -0.834182 -0.544272
vn -0.100153 -0.939412 -0.327832
vn -0.095056 -0.940329 -0.326719
vn -0.082167 -0.834888 -0.544253
vn -0.106012 -0.994365 0.000376
vn -0.100790 -0.945388 0.309974
vn -0.101090 -0.944935 0.311253
vn -0.103556 -0.994623 0.000783
vn -0.099610 -0.995027 0.000000
vn -0.099610 -0.995027 0.000000
vn -0.099610 -0.995027 0.000000
vn -0.099610 -0.995027 0.000000
vn 0.014150 -0.000373 -0.999900
vn 0.014150 -0.000373 -0.999900
vn 0.014150 -0.000373 -0.999900
vn 0.014150 -0.000373 -0.999900
vn -0.102076 -0.994753 0.006911
vn -0.102076 -0.994753 0.006911
vn -0.102076 -0.994753 0.006911
vn -0.102076 -0.994753 0.006911
vn -0.014113 0.001136 0.999900
vn -0.014113 0.001136 0.999900
vn -0.014113 0.001136 0.999900
vn -0.014113 0.001136 0.999900
vn -0.091627 -0.939654 -0.329627
vn -0.077874 -0.835316 -0.544228
vn -0.101361 -0.946010 0.307883
vn -0.101970 -0.994787 -0.000291
vn -0.094372 -0.848150 0.521283
vn 0.994600 -0.103214 -0.010881
vn 0.992384 -0.113564 -0.047728
vn 0.994897 -0.100862 -0.002580
vn 0.994932 -0.100538 -0.001437
vn 0.994932 -0.100538 -0.001437
vn 0.994586 -0.103920 -0.000026
vn 0.994585 -0.103924 -0.000021
vn 0.994585 -0.103927 -0.000017
vn 0.994585 -0.103929 -0.000014
vn 0.011575 -0.000488 -0.999933
vn -0.990641 0.105254 0.086901
vn -0.990647 0.105317 -0.086752
vn -0.012029 0.000604 0.999927
vn -0.668742 0.071789 -0.740020
vn -0.712069 0.075846 0.698001
vn 0.103103 0.994671 0.000001
vn 0.103103 0.994671 0.000001
vn 0.103103 0.994671 0.000001
vn 0.103103 0.994671 0.000001
vn 0.105993 0.994367 0.000002
vn 0.105993 0.994367 0.000002
vn 0.105993 0.994367 0.000002
vn 0.105993 0.994367 0.000002
s 1
g polySurface21 group1 uploads_files_730998_Gundam:polySurface666
usemtl uploads_files_730998_Gundam:lambert10SG
f 27/1/1 18/2/2 23/3/3 26/4/4
s 2
f 12/5/5 20/6/6 28/7/7
s 3
f 22/8/8 16/9/9 24/10/10 25/11/11
s 2
f 14/12/12 21/13/13 23/3/14 18/2/15
f 30/14/16 32/15/17 12/5/5
f 12/5/5 16/9/18 22/8/19 20/6/6
f 12/5/5 28/7/7 30/14/16
f 31/16/20 29/17/21 14/12/12
f 29/17/21 21/13/22 14/12/12
f 32/15/17 14/12/12 12/5/5
f 32/15/17 31/16/20 14/12/12
s 7
f 22/18/23 25/19/24 33/20/25 20/21/26
s off
f 21/22/27 34/23/28 26/24/29 23/25/30
s 8
f 29/26/31 35/27/32 34/23/33 21/22/34
s 7
f 20/21/26 33/20/25 28/28/35
s 8
f 28/28/36 33/20/37 36/29/38 30/30/39
f 32/31/40 38/32/41 37/33/42 31/34/43
f 31/34/43 37/33/42 35/27/32 29/26/31
f 30/30/39 36/29/38 38/32/41 32/31/40
s off
f 27/35/44 39/36/45 5/37/46 3/38/47
f 39/36/48 35/27/49 6/39/50 5/37/51
f 1/40/52 7/41/53 40/42/54 24/43/55
f 7/41/56 8/44/57 33/20/58 40/42/59
s 8
f 33/20/37 8/44/60 9/45/61 36/29/38
f 38/32/41 11/46/62 10/47/63 37/33/42
f 37/33/42 10/47/63 6/39/64 35/27/32
f 36/29/38 9/45/61 11/46/62 38/32/41
s 10
f 34/48/65 27/35/66 26/49/67
f 35/50/68 39/36/69 27/35/66 34/48/65
s 11
f 25/51/70 24/43/71 33/52/72
f 33/52/72 24/43/71 40/42/73
s 1
f 19/53/74 18/2/2 27/1/1
s 2
f 13/54/75 12/5/5 14/12/12 15/55/76
s 3
f 17/56/77 24/10/10 16/9/9
s 2
f 15/55/76 14/12/12 18/2/15 19/53/78
f 16/9/18 12/5/5 13/54/75 17/56/79
s 1
f 27/1/1 3/57/80 4/58/81 19/53/74
s 3
f 2/59/82 1/60/83 24/10/10 17/56/77
s off
f 17/56/84 19/61/85 4/62/86 2/59/87
f 17/56/88 13/63/89 15/64/90 19/61/91
s 1
f 56/65/92 55/66/93 52/67/94 47/68/95
s 13
f 41/69/96 57/70/97 49/71/98
s 3
f 51/72/99 54/73/100 53/74/101 45/75/102
s 13
f 43/76/103 47/68/104 52/67/105 50/77/106
f 59/78/107 41/69/96 61/79/108
f 41/69/96 49/71/98 51/72/109 45/75/110
f 41/69/96 59/78/107 57/70/97
f 60/80/111 43/76/103 58/81/112
f 58/81/112 43/76/103 50/77/113
f 61/79/108 41/69/96 43/76/103
f 61/79/108 43/76/103 60/80/111
s 17
f 51/82/114 49/83/115 62/84/116 54/85/117
s off
f 50/86/118 52/87/119 55/88/120 63/89/121
s 18
f 58/90/122 50/86/123 63/89/124 64/91/125
s 17
f 49/83/115 57/92/126 62/84/116
s 18
f 57/92/127 59/93/128 65/94/129 62/84/130
f 61/95/131 60/96/132 66/97/133 67/98/134
f 60/96/132 58/90/122 64/91/125 66/97/133
f 59/93/128 61/95/131 67/98/134 65/94/129
s off
f 56/99/135 3/38/136 5/37/137 68/100/138
f 68/100/139 5/37/140 6/39/141 64/91/142
f 1/40/143 53/101/144 69/102/145 7/41/146
f 7/41/147 69/102/148 62/84/149 8/44/150
s 18
f 62/84/130 65/94/129 9/45/151 8/44/152
f 67/98/134 66/97/133 10/47/153 11/46/154
f 66/97/133 64/91/125 6/39/155 10/47/153
f 65/94/129 67/98/134 11/46/154 9/45/151
s 20
f 63/103/156 55/104/157 56/99/158
f 64/105/159 63/103/156 56/99/158 68/100/160
s 21
f 54/106/161 62/107/162 53/101/163
f 62/107/162 69/102/164 53/101/163
s 1
f 48/108/165 56/65/92 47/68/95
s 13
f 42/109/166 44/110/167 43/76/103 41/69/96
s 3
f 46/111/168 45/75/102 53/74/101
s 13
f 44/110/167 48/108/169 47/68/104 43/76/103
f 45/75/110 46/111/170 42/109/166 41/69/96
s 1
f 56/65/92 48/108/165 4/112/81 3/113/80
s 3
f 2/59/82 46/111/168 53/74/101 1/60/83
s off
f 46/111/171 2/59/172 4/62/173 48/114/174
f 46/111/175 48/114/176 44/115/177 42/116/178
