# This file uses centimeters as units for non-parametric coordinates.

mtllib upuparm1.mtl
g default
v -4.947609 21.550465 -0.371706
v -4.947483 21.551653 0.137213
v -5.046461 20.623098 -0.371706
v -5.046461 20.623098 0.137213
v -5.116288 20.551952 -0.371706
v -5.116288 20.551952 0.137213
v -5.145555 20.277431 -0.371706
v -5.145555 20.277431 0.137213
v -5.003689 20.085840 -0.371706
v -5.000380 20.085497 0.137213
v -3.941345 21.817417 -0.371706
v -3.941345 21.817417 0.137213
v -4.784821 20.062761 -0.371706
v -4.943278 21.697166 -0.371706
v -4.569331 21.884367 -0.371706
v -5.066358 20.436451 -0.371706
v -4.937747 21.696577 -0.711516
v -4.570231 21.883909 -0.713565
v -5.066357 20.436451 -0.713764
v -4.787056 20.068708 -0.713764
v -4.135128 19.996033 -0.713764
v -4.036857 20.963320 -0.713764
v -3.941344 21.817417 -0.713764
v -4.135420 19.993290 0.137213
v -4.135396 19.993525 -0.371706
v -2.953562 21.485037 -0.371706
v -3.099044 20.226709 0.137213
v -3.099044 20.226709 -0.371706
v -3.453063 19.920542 0.137213
v -3.453038 19.920776 -0.371706
v -3.099046 20.226709 -0.713764
v -2.958403 21.485554 -0.713764
v -3.449993 19.925781 -0.713764
v -3.279638 21.746868 -0.713764
v -3.279638 21.746868 0.137213
v -3.279638 21.746868 -0.371706
v -5.015280 21.594357 -0.371706
v -4.984627 21.881878 -0.371706
v -5.015280 21.594357 0.137213
v -4.984627 21.881878 0.137213
v -4.921360 21.921898 -0.371706
v -4.921360 21.921898 0.137213
v -4.947609 21.550465 -0.371706
v -5.046461 20.623098 -0.371706
v -5.116288 20.551952 -0.371706
v -5.145555 20.277431 -0.371706
v -5.003689 20.085840 -0.371706
v -4.943278 21.697166 -0.371706
v -4.569331 21.884367 -0.371706
v -5.066358 20.436451 -0.371706
v -2.954018 21.485086 0.137213
v -3.448173 19.927341 -0.713764
v -4.947609 21.550465 0.646132
v -5.046461 20.623098 0.646132
v -5.116288 20.551952 0.646132
v -5.145555 20.277431 0.646132
v -5.003689 20.085840 0.646132
v -3.941345 21.817417 0.646131
v -4.784821 20.062761 0.646132
v -4.943278 21.697166 0.646132
v -4.569331 21.884367 0.646132
v -5.066358 20.436451 0.646132
v -4.937747 21.696577 0.985941
v -4.570231 21.883909 0.987991
v -5.066357 20.436451 0.988189
v -4.787056 20.068708 0.988189
v -4.135128 19.996033 0.988189
v -4.036857 20.963320 0.988189
v -3.941344 21.817417 0.988189
v -4.135396 19.993525 0.646131
v -2.953562 21.485037 0.646132
v -3.099044 20.226709 0.646132
v -3.453038 19.920776 0.646132
v -3.099046 20.226709 0.988189
v -2.958403 21.485554 0.988189
v -3.449993 19.925781 0.988189
v -3.279638 21.746868 0.988189
v -3.279638 21.746868 0.646132
v -5.015280 21.594357 0.646132
v -4.984627 21.881878 0.646132
v -4.921360 21.921898 0.646132
v -4.947609 21.550465 0.646132
v -5.046461 20.623098 0.646132
v -5.116288 20.551952 0.646132
v -5.145555 20.277431 0.646132
v -5.003689 20.085840 0.646132
v -4.943278 21.697166 0.646132
v -4.569331 21.884367 0.646132
v -5.066358 20.436451 0.646132
v -3.448173 19.927341 0.988189
vt 0.953923 0.464841
vt 0.929334 0.464965
vt 0.929266 0.452249
vt 0.953887 0.452124
vt 0.927273 0.464975
vt 0.927206 0.452259
vt 0.919994 0.465012
vt 0.919926 0.452296
vt 0.915367 0.465036
vt 0.915300 0.452319
vt 0.923844 0.482279
vt 0.929334 0.472681
vt 0.953923 0.472557
vt 0.957842 0.481564
vt 0.963754 0.490665
vt 0.963775 0.507361
vt 0.941121 0.507244
vt 0.916155 0.489522
vt 0.900658 0.490203
vt 0.887307 0.484436
vt 0.900681 0.484401
vt 0.900597 0.507451
vt 0.887283 0.507440
vt 0.915492 0.507372
vt 0.906476 0.507363
vt 0.906537 0.490116
vt 0.957766 0.472529
vt 0.972791 0.507371
vt 0.972809 0.490719
vt 0.924406 0.544099
vt 0.924369 0.557445
vt 0.915352 0.557420
vt 0.915395 0.544074
vt 0.924430 0.532455
vt 0.957827 0.532585
vt 0.957803 0.540129
vt 0.924406 0.540038
vt 0.963785 0.526980
vt 0.915605 0.528285
vt 0.900645 0.525572
vt 0.887263 0.525602
vt 0.915551 0.525531
vt 0.906524 0.525485
vt 0.963720 0.557553
vt 0.957766 0.557537
vt 0.957803 0.544190
vt 0.963756 0.544206
vt 0.990591 0.513303
vt 0.990614 0.530856
vt 0.978213 0.530874
vt 0.978189 0.513336
vt 0.963756 0.540145
vt 0.972788 0.507356
vt 0.972812 0.524894
vt 0.963355 0.451180
vt 0.963351 0.456665
vt 0.961543 0.453464
vt 0.972689 0.466651
vt 0.961543 0.461531
vt 0.967791 0.451180
vt 0.977779 0.456682
vt 0.967788 0.456665
vt 0.966260 0.466658
vt 0.990435 0.478443
vt 0.990478 0.486068
vt 0.978078 0.486146
vt 0.978033 0.478524
vt 0.990486 0.487300
vt 0.978084 0.487366
vt 0.978021 0.476630
vt 0.990422 0.476543
vt 0.976449 0.481429
vt 0.976129 0.477573
vt 0.976538 0.487383
vt 0.967204 0.487439
vt 0.915395 0.540013
vt 0.915560 0.530995
vt 0.967127 0.472567
vt 0.967061 0.481672
vt 0.917014 0.476199
vt 0.910386 0.482437
vt 0.832473 0.463940
vt 0.832538 0.451224
vt 0.857158 0.451400
vt 0.857064 0.464116
vt 0.859218 0.451415
vt 0.859124 0.464131
vt 0.866498 0.451467
vt 0.866402 0.464183
vt 0.871125 0.451500
vt 0.871028 0.464216
vt 0.862532 0.482214
vt 0.828536 0.481429
vt 0.832473 0.472429
vt 0.857064 0.472605
vt 0.822604 0.490516
vt 0.845203 0.507143
vt 0.822550 0.507213
vt 0.870208 0.489473
vt 0.887351 0.490175
vt 0.887341 0.484372
vt 0.900715 0.484436
vt 0.900691 0.507440
vt 0.887375 0.507424
vt 0.879822 0.490088
vt 0.879846 0.507336
vt 0.870831 0.507325
vt 0.828630 0.472394
vt 0.813533 0.507203
vt 0.813550 0.490551
vt 0.861850 0.543307
vt 0.870860 0.543302
vt 0.870875 0.556648
vt 0.861858 0.556653
vt 0.861841 0.532389
vt 0.861850 0.539972
vt 0.828452 0.539994
vt 0.828443 0.532449
vt 0.822497 0.526832
vt 0.870675 0.528238
vt 0.887292 0.525544
vt 0.900671 0.525602
vt 0.870734 0.525484
vt 0.879763 0.525457
vt 0.822507 0.556679
vt 0.822498 0.543332
vt 0.828452 0.543328
vt 0.828461 0.556674
vt 0.796737 0.512281
vt 0.809139 0.512343
vt 0.809078 0.529881
vt 0.796677 0.529835
vt 0.822498 0.539997
vt 0.813535 0.507189
vt 0.813474 0.524727
vt 0.821343 0.450293
vt 0.823155 0.452577
vt 0.821349 0.455778
vt 0.823155 0.460645
vt 0.812007 0.465764
vt 0.816492 0.450293
vt 0.816498 0.455778
vt 0.806503 0.455795
vt 0.818440 0.465771
vt 0.796967 0.477421
vt 0.809370 0.477531
vt 0.809308 0.485153
vt 0.796907 0.485047
vt 0.796897 0.486279
vt 0.809298 0.486373
vt 0.809385 0.475637
vt 0.796983 0.475522
vt 0.810946 0.480440
vt 0.811274 0.476584
vt 0.820179 0.486468
vt 0.810845 0.486393
vt 0.870860 0.539967
vt 0.870715 0.530948
vt 0.819269 0.472411
vt 0.819317 0.481517
vt 0.869375 0.476149
vt 0.875990 0.482401
vn -0.994367 0.105994 -0.000000
vn -0.994367 0.105994 -0.000000
vn -0.994367 0.105994 -0.000000
vn -0.994367 0.105994 -0.000000
vn -0.713691 0.700460 0.000000
vn -0.713691 0.700460 0.000000
vn -0.713691 0.700460 0.000000
vn -0.713691 0.700460 0.000000
vn -0.994365 0.106012 0.000000
vn -0.994365 0.106012 0.000000
vn -0.994365 0.106012 0.000000
vn -0.994365 0.106012 0.000000
vn -0.800601 -0.599193 0.002402
vn -0.800601 -0.599193 0.002402
vn -0.800601 -0.599193 0.002402
vn -0.800601 -0.599193 0.002402
vn -0.994602 0.103413 0.008489
vn -0.994602 0.103413 0.008489
vn -0.994894 0.100638 0.007555
vn -0.994780 0.101739 0.007925
vn -0.002686 -0.001341 -0.999996
vn -0.000312 0.000035 -1.000000
vn -0.000864 0.000921 -0.999999
vn -0.000603 0.001177 -0.999999
vn -0.000000 0.000000 -1.000000
vn -0.001970 0.000645 -0.999998
vn -0.105916 -0.994375 -0.000431
vn -0.105951 -0.994371 -0.000445
vn -0.104865 -0.994487 0.000017
vn -0.106006 -0.994365 -0.000469
vn -0.106006 -0.994365 -0.000469
vn -0.108399 -0.994035 -0.011973
vn -0.108399 -0.994035 -0.011973
vn -0.108399 -0.994035 -0.011973
vn -0.108399 -0.994035 -0.011973
vn -0.999431 0.029511 -0.016317
vn 0.105576 0.994411 -0.000808
vn 0.105576 0.994411 -0.000808
vn 0.105576 0.994411 -0.000808
vn 0.105576 0.994411 -0.000808
vn 0.654009 -0.756487 -0.000156
vn 0.654009 -0.756487 -0.000156
vn 0.654009 -0.756487 -0.000156
vn 0.654009 -0.756487 -0.000156
vn 0.993576 -0.112939 -0.007117
vn 0.992824 0.119387 -0.006935
vn 0.993162 0.116542 -0.006940
vn 0.993576 -0.112939 -0.007117
vn 0.000000 0.000000 -1.000000
vn 0.000000 0.000000 -1.000000
vn 0.000000 0.000000 -1.000000
vn 0.000000 0.000000 -1.000000
vn 0.000000 0.000000 -1.000000
vn -0.106012 -0.994365 -0.000459
vn -0.106012 -0.994365 -0.000459
vn -0.106012 -0.994365 -0.000459
vn -0.106012 -0.994365 -0.000459
vn -0.103997 -0.994512 -0.011432
vn -0.103997 -0.994512 -0.011432
vn -0.103997 -0.994512 -0.011432
vn -0.103997 -0.994512 -0.011432
vn 0.626340 0.779550 0.000240
vn 0.993006 0.118061 0.000438
vn 0.993028 0.117879 0.000438
vn 0.626340 0.779550 0.000240
vn 0.106016 0.994364 0.000000
vn 0.106016 0.994364 0.000000
vn 0.106016 0.994364 0.000000
vn 0.106016 0.994365 0.000000
vn 0.628564 0.777748 -0.003857
vn 0.628564 0.777748 -0.003857
vn 0.106016 0.994365 -0.000000
vn 0.106016 0.994365 -0.000000
vn 0.106016 0.994364 -0.000000
vn 0.106016 0.994365 -0.000000
vn 0.000000 0.000000 -1.000000
vn 0.000000 0.000000 -1.000000
vn 0.000000 0.000000 -1.000000
vn -0.000000 0.000000 -1.000000
vn -0.000000 0.000000 -1.000000
vn -0.000000 0.000000 -1.000000
vn -0.000000 0.000000 -1.000000
vn -0.994366 0.106005 -0.000005
vn -0.994366 0.106005 -0.000005
vn -0.994366 0.106005 -0.000005
vn 0.000000 0.000000 -1.000000
vn 0.000000 0.000000 -1.000000
vn 0.000000 0.000000 -1.000000
vn -0.994365 0.106011 0.000000
vn -0.994365 0.106011 0.000000
vn -0.994365 0.106011 0.000000
vn -0.994365 0.106011 0.000000
vn -0.534579 0.845119 0.000000
vn -0.534579 0.845119 0.000000
vn -0.534579 0.845119 0.000000
vn -0.534579 0.845119 0.000000
vn -0.538593 -0.842566 0.001052
vn -0.538593 -0.842566 0.001052
vn -0.538593 -0.842566 0.001052
vn -0.538593 -0.842566 0.001052
vn 0.106011 0.994365 0.000000
vn 0.106011 0.994365 0.000000
vn 0.106011 0.994365 0.000000
vn 0.106011 0.994365 0.000000
vn -0.000001 0.000000 -1.000000
vn -0.000001 0.000000 -1.000000
vn -0.000001 0.000000 -1.000000
vn -0.000001 0.000000 -1.000000
vn -0.000001 0.000000 -1.000000
vn -0.000001 0.000000 -1.000000
vn 0.000000 0.000000 -1.000000
vn 0.000000 0.000000 -1.000000
vn 0.000000 0.000000 -1.000000
vn 0.000000 0.000000 -1.000000
vn 0.993404 -0.114670 0.000450
vn 0.993404 -0.114670 0.000450
vn 0.000000 0.000000 -1.000000
vn 0.000000 0.000000 -1.000000
vn 0.000000 0.000000 -1.000000
vn -0.000000 0.000000 -1.000000
vn 0.000000 0.000000 -1.000000
vn 0.000000 0.000000 -1.000000
vn 0.652415 -0.757857 -0.002650
vn 0.652415 -0.757857 -0.002650
vn 0.652415 -0.757857 -0.002650
vn 0.652415 -0.757857 -0.002650
vn 0.652415 -0.757857 -0.002650
vn -0.450876 0.892576 -0.004433
vn -0.450876 0.892576 -0.004433
vn -0.450876 0.892576 -0.004433
vn -0.450876 0.892576 -0.004433
vn -0.797530 -0.603273 -0.002633
vn -0.797530 -0.603273 -0.002633
vn -0.797530 -0.603273 -0.002633
vn -0.797530 -0.603273 -0.002633
vn -0.994367 0.105994 0.000001
vn -0.994367 0.105994 0.000001
vn -0.994367 0.105994 0.000001
vn -0.994367 0.105994 0.000001
vn -0.713691 0.700460 0.000000
vn -0.713691 0.700460 0.000000
vn -0.713691 0.700460 0.000000
vn -0.713691 0.700460 0.000000
vn -0.994365 0.106012 0.000000
vn -0.994365 0.106012 0.000000
vn -0.994365 0.106012 0.000000
vn -0.994365 0.106012 0.000000
vn -0.800601 -0.599193 -0.002402
vn -0.800601 -0.599193 -0.002402
vn -0.800601 -0.599193 -0.002402
vn -0.800601 -0.599193 -0.002402
vn -0.994602 0.103412 -0.008488
vn -0.994780 0.101739 -0.007925
vn -0.994894 0.100638 -0.007554
vn -0.994602 0.103412 -0.008488
vn -0.002686 -0.001341 0.999996
vn -0.000864 0.000921 0.999999
vn -0.000312 0.000035 1.000000
vn -0.000603 0.001177 0.999999
vn 0.000000 0.000000 1.000000
vn -0.001970 0.000645 0.999998
vn -0.105916 -0.994375 0.000432
vn -0.104865 -0.994487 -0.000017
vn -0.105951 -0.994371 0.000447
vn -0.106006 -0.994365 0.000470
vn -0.106006 -0.994365 0.000470
vn -0.108399 -0.994035 0.011973
vn -0.108399 -0.994035 0.011973
vn -0.108399 -0.994035 0.011973
vn -0.108399 -0.994035 0.011973
vn -0.999431 0.029511 0.016317
vn 0.105576 0.994411 0.000807
vn 0.105576 0.994411 0.000807
vn 0.105576 0.994411 0.000807
vn 0.105576 0.994411 0.000807
vn 0.654009 -0.756487 0.000156
vn 0.654009 -0.756487 0.000156
vn 0.654009 -0.756487 0.000156
vn 0.654009 -0.756487 0.000156
vn 0.993576 -0.112939 0.007117
vn 0.993576 -0.112939 0.007117
vn 0.993161 0.116542 0.006941
vn 0.992824 0.119387 0.006936
vn 0.000000 0.000000 1.000000
vn -0.000000 0.000000 1.000000
vn -0.000000 0.000000 1.000000
vn -0.000000 0.000000 1.000000
vn 0.000000 0.000000 1.000000
vn -0.106012 -0.994365 0.000459
vn -0.106012 -0.994365 0.000459
vn -0.106012 -0.994365 0.000459
vn -0.106012 -0.994365 0.000459
vn -0.103997 -0.994512 0.011432
vn -0.103997 -0.994512 0.011432
vn -0.103997 -0.994512 0.011432
vn -0.103997 -0.994512 0.011432
vn 0.626340 0.779550 -0.000240
vn 0.626340 0.779550 -0.000240
vn 0.993028 0.117879 -0.000438
vn 0.993006 0.118061 -0.000438
vn 0.106016 0.994365 0.000000
vn 0.106016 0.994365 0.000000
vn 0.106016 0.994365 0.000000
vn 0.106016 0.994365 0.000000
vn 0.628564 0.777748 0.003859
vn 0.628564 0.777748 0.003859
vn 0.106016 0.994365 0.000000
vn 0.106016 0.994365 0.000000
vn 0.106016 0.994365 0.000000
vn 0.106016 0.994365 0.000000
vn 0.000000 0.000000 1.000000
vn 0.000000 0.000000 1.000000
vn 0.000000 0.000000 1.000000
vn 0.000000 0.000000 1.000000
vn 0.000000 0.000000 1.000000
vn 0.000000 0.000000 1.000000
vn 0.000000 0.000000 1.000000
vn -0.994366 0.106005 0.000005
vn -0.994366 0.106005 0.000005
vn -0.994366 0.106005 0.000005
vn 0.000000 0.000000 1.000000
vn 0.000000 0.000000 1.000000
vn 0.000000 0.000000 1.000000
vn -0.994365 0.106011 0.000000
vn -0.994365 0.106011 0.000000
vn -0.994365 0.106011 0.000000
vn -0.994365 0.106011 0.000000
vn -0.534579 0.845119 0.000000
vn -0.534579 0.845119 0.000000
vn -0.534579 0.845119 0.000000
vn -0.534579 0.845119 0.000000
vn -0.538593 -0.842566 -0.001051
vn -0.538593 -0.842566 -0.001051
vn -0.538593 -0.842566 -0.001051
vn -0.538593 -0.842566 -0.001051
vn 0.106011 0.994365 0.000000
vn 0.106011 0.994365 0.000000
vn 0.106011 0.994365 0.000000
vn 0.106011 0.994365 0.000000
vn -0.000001 0.000000 1.000000
vn -0.000001 0.000000 1.000000
vn -0.000001 0.000000 1.000000
vn 0.000000 0.000000 1.000000
vn 0.000000 0.000000 1.000000
vn 0.000000 0.000000 1.000000
vn 0.000000 0.000000 1.000000
vn 0.000000 0.000000 1.000000
vn 0.000000 0.000000 1.000000
vn 0.000000 0.000000 1.000000
vn 0.993404 -0.114670 -0.000450
vn 0.993404 -0.114670 -0.000450
vn 0.000000 0.000000 1.000000
vn 0.000000 0.000000 1.000000
vn 0.000000 0.000000 1.000000
vn 0.000000 0.000000 1.000000
vn 0.000000 0.000000 1.000000
vn 0.000000 0.000000 1.000000
vn 0.652415 -0.757857 0.002649
vn 0.652415 -0.757857 0.002649
vn 0.652415 -0.757857 0.002649
vn 0.652415 -0.757857 0.002649
vn 0.652415 -0.757857 0.002649
vn -0.450876 0.892576 0.004435
vn -0.450876 0.892576 0.004435
vn -0.450876 0.892576 0.004435
vn -0.450876 0.892576 0.004435
vn -0.797530 -0.603273 0.002634
vn -0.797530 -0.603273 0.002634
vn -0.797530 -0.603273 0.002634
vn -0.797530 -0.603273 0.002634
s off
g polySurface6 group1 uploads_files_730998_Gundam:polySurface666
usemtl uploads_files_730998_Gundam:lambert10SG
f 1/1/1 3/2/2 4/3/3 2/4/4
f 3/2/5 5/5/6 6/6/7 4/3/8
f 5/5/9 7/7/10 8/8/11 6/6/12
f 7/7/13 9/9/14 10/10/15 8/8/16
s 1
f 19/11/17 3/12/18 1/13/19 17/14/20
s 2
f 18/15/21 23/16/22 22/17/23
f 19/11/24 22/17/23 20/18/25
f 17/14/26 22/17/23 19/11/24
s 4
f 13/19/27 10/20/28 9/21/29
f 13/19/27 25/22/30 24/23/31 10/20/28
s off
f 20/18/32 21/24/33 25/25/34 13/26/35
s 1
f 17/14/20 1/13/19 14/27/36
s off
f 11/28/37 23/16/38 18/15/39 15/29/40
f 28/30/41 27/31/42 29/32/43 30/33/44
s 5
f 31/34/45 32/35/46 26/36/47 28/37/48
s 6
f 34/38/49 32/35/50 22/17/51
f 31/34/52 52/39/53 22/17/51
f 32/35/50 31/34/52 22/17/51
s off
f 30/40/54 29/41/55 24/23/56 25/22/57
f 33/42/58 30/43/59 25/25/60 21/24/61
s 8
f 35/44/62 51/45/63 26/46/64 36/47/65
s off
f 12/48/66 35/49/67 36/50/68 11/51/69
s 5
f 32/35/46 34/38/70 36/52/71 26/36/47
s off
f 11/53/72 36/54/73 34/38/74 23/16/75
f 44/55/76 50/56/77 45/57/78
f 45/57/79 50/56/80 13/58/81 46/59/82
f 44/60/83 19/61/84 50/62/85
f 13/58/86 47/63/87 46/59/88
f 39/64/89 40/65/90 38/66/91 37/67/92
f 42/68/93 41/69/94 38/66/95 40/65/96
f 43/70/97 2/71/98 39/64/99 37/67/100
f 12/48/101 11/51/102 41/69/103 42/68/104
f 48/72/105 37/67/106 38/66/107
f 48/72/108 43/73/109 37/67/110
f 48/72/111 38/66/112 41/74/113 49/75/114
s 8
f 51/45/63 27/31/115 28/30/116 26/46/64
s off
f 34/38/117 22/17/118 23/16/119
s 2
f 22/17/23 17/14/26 18/15/21
f 22/17/23 21/24/120 20/18/25
s 6
f 52/39/53 33/42/121 21/24/122 22/17/51
s off
f 30/76/123 33/77/124 52/39/125 31/34/126 28/37/127
f 15/78/128 18/79/129 17/14/130 14/27/131
f 16/80/132 19/11/133 20/18/134 13/81/135
f 53/82/136 2/83/137 4/84/138 54/85/139
f 54/85/140 4/84/141 6/86/142 55/87/143
f 55/87/144 6/86/145 8/88/146 56/89/147
f 56/89/148 8/88/149 10/90/150 57/91/151
s 9
f 65/92/152 63/93/153 53/94/154 54/95/155
s 10
f 64/96/156 68/97/157 69/98/158
f 65/92/159 66/99/160 68/97/157
f 63/93/161 65/92/159 68/97/157
s 12
f 59/100/162 57/101/163 10/102/164
f 59/100/162 10/102/164 24/103/165 70/104/166
s off
f 66/99/167 59/105/168 70/106/169 67/107/170
s 9
f 63/93/153 60/108/171 53/94/154
s off
f 58/109/172 61/110/173 64/96/174 69/98/175
f 72/111/176 73/112/177 29/113/178 27/114/179
s 13
f 74/115/180 72/116/181 71/117/182 75/118/183
s 14
f 77/119/184 68/97/185 75/118/186
f 74/115/187 68/97/185 90/120/188
f 75/118/186 68/97/185 74/115/187
s off
f 73/121/189 70/104/190 24/103/191 29/122/192
f 76/123/193 67/107/194 70/106/195 73/124/196
s 15
f 35/125/197 78/126/198 71/127/199 51/128/200
s off
f 12/129/201 58/130/202 78/131/203 35/132/204
s 13
f 75/118/183 71/117/182 78/133/205 77/119/206
s off
f 58/134/207 69/98/208 77/119/209 78/135/210
f 83/136/211 84/137/212 89/138/213
f 84/137/214 85/139/215 59/140/216 89/138/217
f 83/141/218 89/142/219 65/143/220
f 59/140/221 85/139/222 86/144/223
f 39/145/224 79/146/225 80/147/226 40/148/227
f 42/149/228 40/148/229 80/147/230 81/150/231
f 82/151/232 79/146/233 39/145/234 2/152/235
f 12/129/236 42/149/237 81/150/238 58/130/239
f 87/153/240 80/147/241 79/146/242
f 87/153/243 79/146/244 82/154/245
f 87/153/246 88/155/247 81/156/248 80/147/249
s 15
f 51/128/200 71/127/199 72/111/250 27/114/251
s off
f 77/119/252 69/98/253 68/97/254
s 10
f 68/97/157 64/96/156 63/93/161
f 68/97/157 66/99/160 67/107/255
s 14
f 90/120/188 68/97/185 67/107/256 76/123/257
s off
f 73/157/258 72/116/259 74/115/260 90/120/261 76/158/262
f 61/159/263 60/108/264 63/93/265 64/160/266
f 62/161/267 59/162/268 66/99/269 65/92/270
