# This file uses centimeters as units for non-parametric coordinates.

mtllib uparm2.mtl
g default
v 4.303167 18.731443 0.872410
v 4.167851 20.000669 0.872410
v 4.303167 18.731443 -0.547979
v 4.167851 20.000669 -0.547980
v 4.303167 18.731443 -0.181200
v 4.366970 18.132982 -0.181852
v 4.303436 18.728918 0.505109
v 4.367919 18.124075 0.504895
v 4.356609 18.230169 0.340439
v 4.356623 18.230036 -0.022072
v 4.355192 18.243458 0.158912
v 3.563729 18.648617 0.748669
v 3.427207 19.919851 0.747908
v 3.562694 18.649012 -0.450804
v 3.427207 19.919851 -0.450769
v 3.677067 18.662836 0.865963
v 3.541395 19.932026 0.865595
v 3.675006 18.662615 -0.554427
v 3.541481 19.932039 -0.554409
v 3.626879 18.046972 0.677281
v 3.641072 17.913847 -0.354483
v 3.741424 18.059185 0.795337
v 3.753413 17.927183 -0.467595
v 3.849846 18.681255 0.865963
v 3.915471 18.077740 0.795337
v 3.924155 17.945385 -0.467595
v 3.847420 18.679886 -0.554320
v 3.627275 18.043257 0.498447
v 3.626325 18.052164 -0.188300
v 3.615964 18.149353 0.333991
v 3.615978 18.149218 -0.028519
v 3.614547 18.162640 0.152464
v 3.915867 18.074024 0.498447
v 3.929663 17.944614 -0.354483
v 3.914917 18.082932 -0.188300
v 3.904556 18.180120 0.333991
v 3.904570 18.179985 -0.028519
v 3.903139 18.193407 0.152464
v 3.847420 18.679886 -0.187648
v 3.850116 18.678730 0.498662
v 5.043447 18.806374 0.748669
v 4.908888 20.077818 0.747908
v 5.044376 18.806978 -0.450804
v 4.908888 20.077818 -0.450769
v 4.929659 18.796377 0.865963
v 4.794700 20.065643 0.865595
v 4.931720 18.796597 -0.554427
v 4.794612 20.065639 -0.554409
v 5.108561 18.204939 0.677281
v 5.122754 18.071814 -0.354483
v 4.994016 18.192726 0.795337
v 5.010126 18.061165 -0.467595
v 4.756880 18.777956 0.865963
v 4.819969 18.174171 0.795337
v 4.839383 18.042961 -0.467595
v 4.759540 18.777130 -0.554320
v 5.108957 18.201223 0.498447
v 5.108007 18.210131 -0.188300
v 5.097646 18.307318 0.333991
v 5.097660 18.307182 -0.028519
v 5.096229 18.320604 0.152464
v 4.820365 18.170456 0.498447
v 4.834162 18.041046 -0.354483
v 4.819416 18.179363 -0.188300
v 4.809054 18.276550 0.333991
v 4.809069 18.276415 -0.028519
v 4.807638 18.289837 0.152464
v 4.759540 18.777130 -0.187648
v 4.757149 18.775431 0.498662
vt 0.849972 0.382836
vt 0.847525 0.354533
vt 0.840988 0.355085
vt 0.843457 0.383078
vt 0.792725 0.382681
vt 0.802043 0.359657
vt 0.795191 0.359821
vt 0.788857 0.359698
vt 0.782171 0.359080
vt 0.780064 0.382431
vt 0.786604 0.382685
vt 0.837728 0.383028
vt 0.834870 0.355087
vt 0.808359 0.363723
vt 0.815257 0.364281
vt 0.822144 0.363821
vt 0.828356 0.360196
vt 0.885338 0.473054
vt 0.886558 0.474244
vt 0.888404 0.471246
vt 0.885338 0.471247
vt 0.897213 0.474244
vt 0.898381 0.473075
vt 0.898381 0.471302
vt 0.897214 0.471247
vt 0.895497 0.474244
vt 0.895498 0.471246
vt 0.888405 0.474244
vt 0.890103 0.474244
vt 0.890104 0.471247
vt 0.891978 0.474243
vt 0.893847 0.474244
vt 0.893846 0.471247
vt 0.891978 0.471247
vt 0.905483 0.471191
vt 0.905439 0.466473
vt 0.901648 0.466499
vt 0.901697 0.471171
vt 0.895431 0.466539
vt 0.878266 0.466654
vt 0.878327 0.471314
vt 0.882121 0.471319
vt 0.882059 0.466628
vt 0.888340 0.466587
vt 0.890038 0.466575
vt 0.893780 0.466551
vt 0.891911 0.466563
vt 0.903371 0.478820
vt 0.904539 0.478813
vt 0.901664 0.477372
vt 0.879087 0.477579
vt 0.882154 0.477602
vt 0.843376 0.431092
vt 0.792333 0.430779
vt 0.837527 0.431072
vt 0.786121 0.430719
vt 0.867181 0.431222
vt 0.867304 0.382992
vt 0.762377 0.430393
vt 0.762823 0.382320
vt 0.761879 0.483914
vt 0.785678 0.484353
vt 0.790051 0.480475
vt 0.790421 0.435199
vt 0.675684 0.381213
vt 0.682193 0.381576
vt 0.685182 0.353635
vt 0.678658 0.352963
vt 0.732922 0.382124
vt 0.730882 0.359222
vt 0.724034 0.358930
vt 0.737219 0.359218
vt 0.739040 0.382243
vt 0.745583 0.382110
vt 0.743914 0.358725
vt 0.687921 0.381632
vt 0.691297 0.353751
vt 0.717644 0.362877
vt 0.710736 0.363306
vt 0.703857 0.362718
vt 0.697715 0.358979
vt 0.885253 0.460161
vt 0.885278 0.461968
vt 0.888342 0.461927
vt 0.886455 0.458955
vt 0.897111 0.458812
vt 0.897150 0.461809
vt 0.898318 0.461738
vt 0.898293 0.459965
vt 0.895395 0.458836
vt 0.895434 0.461833
vt 0.888302 0.458930
vt 0.890041 0.461905
vt 0.890001 0.458908
vt 0.891876 0.458883
vt 0.891915 0.461879
vt 0.893784 0.461854
vt 0.893744 0.458856
vt 0.905420 0.461754
vt 0.901635 0.461826
vt 0.882059 0.461938
vt 0.878265 0.461996
vt 0.903206 0.454154
vt 0.904374 0.454145
vt 0.901519 0.455624
vt 0.878940 0.455721
vt 0.882006 0.455655
vt 0.681382 0.429583
vt 0.732418 0.430221
vt 0.687230 0.429674
vt 0.738633 0.430278
vt 0.658350 0.381045
vt 0.657578 0.429274
vt 0.738075 0.483911
vt 0.734248 0.434676
vt 0.733776 0.479951
vn 0.010555 -0.013691 -0.999851
vn 0.012299 -0.115968 -0.993177
vn 0.012299 -0.115968 -0.993177
vn 0.006882 -0.062156 -0.998043
vn -0.987353 -0.109979 0.114189
vn -0.994515 -0.104591 0.000469
vn -0.874853 -0.146607 0.461670
vn 0.012250 -0.114908 0.993301
vn 0.012250 -0.114908 0.993301
vn -0.008095 -0.014309 0.999865
vn 0.005998 -0.056259 0.998398
vn -0.986385 -0.111117 -0.121234
vn -0.671733 -0.103246 -0.733563
vn -0.675073 -0.161621 -0.719830
vn -0.675073 -0.161621 -0.719830
vn -0.994532 -0.104437 0.000460
vn -0.994471 -0.105013 0.000730
vn -0.700774 -0.156149 0.696084
vn -0.709082 -0.100695 0.697899
vn -0.994365 -0.106012 0.000002
vn -0.994365 -0.106012 0.000001
vn -0.994365 -0.106012 -0.000000
vn 0.101899 -0.994743 0.010158
vn 0.102997 -0.994596 0.013037
vn 0.102753 -0.994630 0.012396
vn 0.101899 -0.994743 0.010158
vn 0.106001 -0.994294 -0.011954
vn 0.106001 -0.994294 -0.011954
vn 0.106001 -0.994294 -0.011954
vn 0.106001 -0.994294 -0.011954
vn 0.085780 -0.804599 0.587591
vn 0.081292 -0.762498 0.641863
vn 0.081292 -0.762498 0.641863
vn 0.086175 -0.823842 0.560230
vn 0.105988 -0.994148 0.020887
vn 0.088933 -0.834174 -0.544283
vn 0.100153 -0.939410 -0.327839
vn 0.105327 -0.939231 -0.326729
vn 0.095697 -0.833436 -0.544267
vn 0.106012 -0.994365 0.000376
vn 0.100790 -0.945385 0.309981
vn 0.100401 -0.945007 0.311257
vn 0.108465 -0.994100 0.000783
vn 0.112410 -0.993662 0.000000
vn 0.112410 -0.993662 0.000000
vn 0.112410 -0.993662 0.000000
vn 0.112410 -0.993662 0.000000
vn 0.013911 0.002619 -0.999900
vn 0.013911 0.002619 -0.999900
vn 0.013911 0.002619 -0.999900
vn 0.013911 0.002619 -0.999900
vn 0.109940 -0.993914 0.006916
vn 0.109940 -0.993914 0.006916
vn 0.109940 -0.993914 0.006916
vn 0.109940 -0.993914 0.006916
vn -0.014035 -0.001865 0.999900
vn -0.014035 -0.001865 0.999900
vn -0.014035 -0.001865 0.999900
vn -0.014035 -0.001865 0.999900
vn 0.108537 -0.937848 -0.329639
vn 0.099984 -0.832947 -0.544244
vn 0.100362 -0.946116 0.307885
vn 0.110049 -0.993926 -0.000291
vn 0.086563 -0.848981 0.521285
vn 0.994004 0.108797 -0.010882
vn 0.994020 0.098212 -0.047733
vn 0.993799 0.111159 -0.002581
vn 0.993765 0.111484 -0.001437
vn 0.993765 0.111484 -0.001437
vn 0.994140 0.108102 -0.000026
vn 0.994140 0.108099 -0.000022
vn 0.994140 0.108097 -0.000018
vn 0.994141 0.108095 -0.000015
vn 0.011417 0.001963 -0.999933
vn -0.990565 -0.105967 0.086902
vn -0.990585 -0.105906 -0.086752
vn -0.011886 -0.001945 0.999927
vn -0.668847 -0.070815 -0.740019
vn -0.712055 -0.075983 0.698000
vn -0.000080 0.000748 -1.000000
vn -0.000080 0.000748 -1.000000
vn 0.000073 -0.000685 1.000000
vn 0.000073 -0.000685 1.000000
vn -0.108919 0.994051 0.000002
vn -0.108919 0.994051 0.000002
vn -0.108919 0.994051 0.000002
vn -0.108919 0.994051 0.000002
vn -0.106036 0.994362 0.000003
vn -0.106036 0.994362 0.000003
vn -0.106036 0.994362 0.000003
vn -0.106036 0.994362 0.000003
vn -0.007432 -0.015609 -0.999851
vn 0.006377 -0.062211 -0.998043
vn 0.012427 -0.115955 -0.993177
vn 0.012427 -0.115955 -0.993177
vn 0.988347 0.100654 0.114189
vn 0.886098 0.041132 0.461669
vn 0.994212 0.107434 0.000470
vn 0.012250 -0.114908 0.993301
vn 0.005998 -0.056259 0.998398
vn 0.010929 -0.012281 0.999865
vn 0.012250 -0.114908 0.993301
vn 0.987641 0.099339 -0.121234
vn 0.693976 -0.015664 -0.719828
vn 0.693976 -0.015664 -0.719828
vn 0.678402 0.040695 -0.733563
vn 0.994195 0.107589 0.000459
vn 0.994258 0.107012 0.000731
vn 0.714375 0.051062 0.697898
vn 0.717947 -0.004897 0.696081
vn 0.994365 0.106012 0.000000
vn 0.994365 0.106010 0.000001
vn 0.994365 0.106011 0.000002
vn 0.110110 -0.993868 0.010145
vn 0.110110 -0.993868 0.010145
vn 0.109252 -0.993937 0.012388
vn 0.109006 -0.993956 0.013031
vn 0.106005 -0.994294 -0.011945
vn 0.106005 -0.994294 -0.011945
vn 0.106005 -0.994294 -0.011945
vn 0.106005 -0.994294 -0.011945
vn 0.085781 -0.804605 0.587582
vn 0.089452 -0.823496 0.560225
vn 0.081292 -0.762503 0.641858
vn 0.081292 -0.762503 0.641858
vn 0.105989 -0.994148 0.020901
vn 0.088934 -0.834183 -0.544269
vn 0.082167 -0.834889 -0.544251
vn 0.095057 -0.940330 -0.326717
vn 0.100153 -0.939413 -0.327829
vn 0.106012 -0.994365 0.000377
vn 0.103556 -0.994623 0.000784
vn 0.101090 -0.944935 0.311254
vn 0.100790 -0.945388 0.309972
vn 0.099610 -0.995027 0.000000
vn 0.099610 -0.995027 0.000000
vn 0.099610 -0.995027 0.000000
vn 0.099610 -0.995027 0.000000
vn -0.014150 -0.000372 -0.999900
vn -0.014150 -0.000372 -0.999900
vn -0.014150 -0.000372 -0.999900
vn -0.014150 -0.000372 -0.999900
vn 0.102076 -0.994753 0.006911
vn 0.102076 -0.994753 0.006911
vn 0.102076 -0.994753 0.006911
vn 0.102076 -0.994753 0.006911
vn 0.014113 0.001136 0.999900
vn 0.014113 0.001136 0.999900
vn 0.014113 0.001136 0.999900
vn 0.014113 0.001136 0.999900
vn 0.077874 -0.835316 -0.544227
vn 0.091627 -0.939655 -0.329625
vn 0.101970 -0.994787 -0.000290
vn 0.101361 -0.946009 0.307884
vn 0.094372 -0.848147 0.521288
vn -0.994600 -0.103214 -0.010881
vn -0.994897 -0.100862 -0.002581
vn -0.992384 -0.113562 -0.047729
vn -0.994932 -0.100538 -0.001437
vn -0.994932 -0.100538 -0.001437
vn -0.994586 -0.103921 -0.000027
vn -0.994585 -0.103927 -0.000017
vn -0.994585 -0.103924 -0.000022
vn -0.994585 -0.103930 -0.000014
vn -0.011575 -0.000488 -0.999933
vn 0.990641 0.105254 0.086901
vn 0.990647 0.105317 -0.086752
vn 0.012029 0.000604 0.999927
vn 0.668742 0.071789 -0.740020
vn 0.712069 0.075846 0.698001
vn -0.103103 0.994671 0.000001
vn -0.103103 0.994671 0.000001
vn -0.103103 0.994671 0.000001
vn -0.103103 0.994671 0.000001
vn -0.105993 0.994367 0.000002
vn -0.105993 0.994367 0.000002
vn -0.105993 0.994367 0.000002
vn -0.105993 0.994367 0.000002
s 1
g polySurface15 group1 uploads_files_730998_Gundam:polySurface666
usemtl uploads_files_730998_Gundam:lambert10SG
f 27/1/1 26/2/2 23/3/3 18/4/4
s 2
f 12/5/5 28/6/6 20/7/7
s 3
f 22/8/8 25/9/9 24/10/10 16/11/11
s 2
f 14/12/12 18/4/13 23/3/14 21/13/15
f 30/14/16 12/5/5 32/15/17
f 12/5/5 20/7/7 22/8/18 16/11/19
f 12/5/5 30/14/16 28/6/6
f 31/16/20 14/12/12 29/17/21
f 29/17/21 14/12/12 21/13/22
f 32/15/17 12/5/5 14/12/12
f 32/15/17 14/12/12 31/16/20
s 6
f 22/18/23 20/19/24 33/20/25 25/21/26
s off
f 21/22/27 23/23/28 26/24/29 34/25/30
s 7
f 29/26/31 21/22/32 34/25/33 35/27/34
s 6
f 20/19/24 28/28/35 33/20/25
s 7
f 28/28/36 30/29/37 36/30/38 33/20/39
f 32/31/40 31/32/41 37/33/42 38/34/43
f 31/32/41 29/26/31 35/27/34 37/33/42
f 30/29/37 32/31/40 38/34/43 36/30/38
s off
f 27/35/44 3/36/45 5/37/46 39/38/47
f 39/38/48 5/37/49 6/39/50 35/27/51
f 1/40/52 24/41/53 40/42/54 7/43/55
f 7/43/56 40/42/57 33/20/58 8/44/59
s 7
f 33/20/39 36/30/38 9/45/60 8/44/61
f 38/34/43 37/33/42 10/46/62 11/47/63
f 37/33/42 35/27/34 6/39/64 10/46/62
f 36/30/38 38/34/43 11/47/63 9/45/60
s 9
f 34/48/65 26/49/66 27/35/67
f 35/50/68 34/48/65 27/35/67 39/38/69
s 10
f 25/51/70 33/52/71 24/41/72
f 33/52/71 40/42/73 24/41/72
s 1
f 19/53/74 27/1/1 18/4/4
s 2
f 13/54/75 15/55/76 14/12/12 12/5/5
s 3
f 17/56/77 16/11/11 24/10/10
s 2
f 15/55/76 19/53/78 18/4/13 14/12/12
f 16/11/19 17/56/79 13/54/75 12/5/5
s 1
f 27/1/1 19/53/74 4/57/80 3/58/81
s 3
f 2/59/82 17/56/77 24/10/10 1/60/83
s off
f 17/56/84 2/59/85 4/61/86 19/62/87
f 17/56/88 19/62/89 15/63/90 13/64/91
s 1
f 56/65/92 47/66/93 52/67/94 55/68/95
s 12
f 41/69/96 49/70/97 57/71/98
s 3
f 51/72/99 45/73/100 53/74/101 54/75/102
s 12
f 43/76/103 50/77/104 52/67/105 47/66/106
f 59/78/107 61/79/108 41/69/96
f 41/69/96 45/73/109 51/72/110 49/70/97
f 41/69/96 57/71/98 59/78/107
f 60/80/111 58/81/112 43/76/103
f 58/81/112 50/77/113 43/76/103
f 61/79/108 43/76/103 41/69/96
f 61/79/108 60/80/111 43/76/103
s 17
f 51/82/114 54/83/115 62/84/116 49/85/117
s off
f 50/86/118 63/87/119 55/88/120 52/89/121
s 18
f 58/90/122 64/91/123 63/87/124 50/86/125
s 17
f 49/85/117 62/84/116 57/92/126
s 18
f 57/92/127 62/84/128 65/93/129 59/94/130
f 61/95/131 67/96/132 66/97/133 60/98/134
f 60/98/134 66/97/133 64/91/123 58/90/122
f 59/94/130 65/93/129 67/96/132 61/95/131
s off
f 56/99/135 68/100/136 5/37/137 3/36/138
f 68/100/139 64/91/140 6/39/141 5/37/142
f 1/40/143 7/43/144 69/101/145 53/102/146
f 7/43/147 8/44/148 62/84/149 69/101/150
s 18
f 62/84/128 8/44/151 9/45/152 65/93/129
f 67/96/132 11/47/153 10/46/154 66/97/133
f 66/97/133 10/46/154 6/39/155 64/91/123
f 65/93/129 9/45/152 11/47/153 67/96/132
s 20
f 63/103/156 56/99/157 55/104/158
f 64/105/159 68/100/160 56/99/157 63/103/156
s 21
f 54/106/161 53/102/162 62/107/163
f 62/107/163 53/102/162 69/101/164
s 1
f 48/108/165 47/66/93 56/65/92
s 12
f 42/109/166 41/69/96 43/76/103 44/110/167
s 3
f 46/111/168 53/74/101 45/73/100
s 12
f 44/110/167 43/76/103 47/66/106 48/108/169
f 45/73/109 41/69/96 42/109/166 46/111/170
s 1
f 56/65/92 3/112/81 4/113/80 48/108/165
s 3
f 2/59/82 1/60/83 53/74/101 46/111/168
s off
f 46/111/171 48/114/172 4/61/173 2/59/174
f 46/111/175 42/115/176 44/116/177 48/114/178
